<svg role="img" viewBox="0 0 800 800" xmlns="http://www.w3.org/2000/svg">
<path d="M682.81 607.346L516.152 510.968C492.739 497.473 462.799 505.499 449.248 528.936C443.997 538.169 441.94 548.326 442.933 558.198V746.55C442.933 773.468 464.785 795.343 491.746 795.343C518.635 795.343 540.487 773.468 540.487 746.55V638.24L633.855 692.218C657.268 705.783 687.279 697.686 700.76 674.249C714.311 650.811 706.294 620.84 682.81 607.346Z"/>
<path d="M268.333 400.81C268.617 383.409 259.464 367.216 244.423 358.48L77.7657 262.173C70.5289 257.983 62.228 255.781 53.927 255.781C36.8284 255.781 20.936 264.943 12.4222 279.716C-0.774221 302.585 7.10106 331.918 29.9464 345.128L126.011 400.597L29.9464 456.136C18.8785 462.528 10.9323 472.827 7.66864 485.185C4.33406 497.543 6.03683 510.469 12.4222 521.548C20.936 536.321 36.8284 545.483 53.856 545.483C62.228 545.483 70.5289 543.281 77.7657 539.091L244.423 442.784C259.323 434.119 268.475 418.068 268.333 400.81Z"/>
<path d="M115.572 193.92L282.23 290.227C301.67 301.52 325.651 297.827 340.976 282.841C350.695 273.892 356.726 261.108 356.726 246.903V53.8636C356.726 26.875 334.874 5 307.985 5C281.024 5 259.172 26.875 259.172 53.8636V163.736L164.527 109.048C141.114 95.483 111.174 103.509 97.6225 126.946C84.0714 150.384 92.1595 180.355 115.572 193.92Z"/>
<path d="M490.326 408.622C490.326 412.315 488.197 417.428 485.572 420.127L419.519 486.249C416.894 488.877 411.715 491.008 408.026 491.008H391.211C387.522 491.008 382.342 488.877 379.717 486.249L313.593 420.127C310.968 417.428 308.84 412.315 308.84 408.622V391.789C308.84 388.025 310.968 382.911 313.593 380.283L379.717 314.09C382.342 311.462 387.522 309.332 391.211 309.332H408.026C411.715 309.332 416.894 311.462 419.519 314.09L485.572 380.283C488.197 382.911 490.326 388.025 490.326 391.789V408.622ZM431.368 400.525V399.815C431.368 397.116 429.807 393.352 427.891 391.363L408.38 371.903C406.465 369.914 402.705 368.352 399.938 368.352H399.228C396.532 368.352 392.772 369.914 390.785 371.903L371.345 391.363C369.43 393.281 367.869 397.045 367.869 399.815V400.525C367.869 403.295 369.43 407.059 371.345 408.977L390.785 428.508C392.772 430.426 396.532 431.988 399.228 431.988H399.938C402.705 431.988 406.465 430.426 408.38 428.508L427.891 408.977C429.807 407.059 431.368 403.295 431.368 400.525Z"/>
<path d="M516.16 290.227L682.818 193.92C706.231 180.426 714.319 150.384 700.768 126.946C687.217 103.509 657.276 95.4829 633.864 109.048L540.495 163.026V53.8636C540.495 26.875 518.643 5 491.754 5C464.794 5 442.941 26.875 442.941 53.8636V243.068C442.019 252.869 443.935 263.097 449.256 272.33C462.807 295.767 492.747 303.793 516.16 290.227Z"/>
<path d="M315.65 505.284C304.582 503.153 292.734 504.929 282.233 510.966L115.576 607.344C92.1626 620.838 84.0744 650.809 97.6256 674.247C111.177 697.755 141.117 705.781 164.53 692.216L259.175 637.528V746.548C259.175 773.466 281.027 795.341 307.988 795.341C334.877 795.341 356.729 773.466 356.729 746.548V553.508C356.729 529.147 338.921 508.977 315.65 505.284Z"/>
<path d="M786.976 279.147C773.495 255.639 743.484 247.613 720.071 261.179L553.414 357.486C537.45 366.718 528.653 383.622 528.936 400.809C528.794 417.926 537.592 434.616 553.414 443.707L720.071 540.085C743.484 553.579 773.425 545.554 786.976 522.116C800.527 498.679 792.439 468.707 769.026 455.142L674.664 400.596L769.026 346.051C792.51 332.557 800.527 302.585 786.976 279.147Z"/>
</svg>
